<svg width="64" height="64" viewBox="0 0 64 64" fill="none" xmlns="http://www.w3.org/2000/svg">
<circle cx="32" cy="32" r="32" fill="white"/>
<path d="M32 0C14.328 0 0 14.328 0 32C0 49.672 14.328 64 32 64C49.672 64 64 49.672 64 32C64 14.328 49.672 0 32 0ZM48 34.6667H34.6667V48C34.6667 49.4747 33.472 50.6667 32 50.6667C30.528 50.6667 29.3333 49.4747 29.3333 48V34.6667H16C14.528 34.6667 13.3333 33.4747 13.3333 32C13.3333 30.5253 14.528 29.3333 16 29.3333H29.3333V16C29.3333 14.5253 30.528 13.3333 32 13.3333C33.472 13.3333 34.6667 14.5253 34.6667 16V29.3333H48C49.472 29.3333 50.6667 30.5253 50.6667 32C50.6667 33.4747 49.472 34.6667 48 34.6667Z" fill="black"/>
</svg>
