<svg width="32" height="29" viewBox="0 0 32 29" fill="none" xmlns="http://www.w3.org/2000/svg">
<path d="M29.4614 2.78613C27.8049 0.989502 25.532 0 23.0608 0C21.2136 0 19.522 0.583984 18.0327 1.7356C17.2812 2.31689 16.6003 3.02808 16 3.85815C15.3999 3.02832 14.7188 2.31689 13.967 1.7356C12.478 0.583984 10.7864 0 8.93921 0C6.46802 0 4.19482 0.989502 2.53833 2.78613C0.901611 4.56177 0 6.98755 0 9.61694C0 12.3232 1.00854 14.8005 3.17383 17.4133C5.11084 19.7505 7.89478 22.123 11.1187 24.8704C12.2195 25.8086 13.4673 26.8721 14.7629 28.0049C15.1052 28.3047 15.5444 28.4697 16 28.4697C16.4553 28.4697 16.8948 28.3047 17.2366 28.0054C18.5322 26.8723 19.7808 25.8083 20.8821 24.8696C24.1055 22.1228 26.8894 19.7505 28.8264 17.4131C30.9917 14.8005 32 12.3232 32 9.6167C32 6.98755 31.0984 4.56177 29.4614 2.78613Z" fill="black"/>
</svg>
