<svg width="70" height="70" viewBox="0 0 70 70" fill="none" xmlns="http://www.w3.org/2000/svg">
<rect width="70" height="70" fill="black"/>
<path d="M46.2893 39.7236C46.2893 45.9487 41.2252 51.0129 35 51.0129C28.7748 51.0129 23.7126 45.9487 23.7126 39.7236C23.7126 33.4984 28.7748 28.4342 35 28.4342C41.2252 28.4342 46.2893 33.5003 46.2893 39.7236ZM70 23.6933V55.7577C70 60.0323 66.5343 63.4981 62.2596 63.4981H7.74037C3.46575 63.4981 0 60.0323 0 55.7577V23.6933C0 19.4186 3.46575 15.9529 7.74037 15.9529H17.261V13.2747C17.261 9.5342 20.2914 6.50191 24.0338 6.50191H45.9662C49.7086 6.50191 52.739 9.5342 52.739 13.2747V15.951H62.2596C66.5343 15.9529 70 19.4186 70 23.6933ZM52.0946 39.7236C52.0946 30.2977 44.4258 22.629 35 22.629C25.5761 22.629 17.9073 30.2977 17.9073 39.7236C17.9073 49.1494 25.5761 56.8182 35 56.8182C44.4258 56.8182 52.0946 49.1494 52.0946 39.7236Z" fill="white"/>
</svg>
