<svg width="32" height="32" viewBox="0 0 32 32" fill="none" xmlns="http://www.w3.org/2000/svg">
<path d="M22.5625 24.75C21.8721 24.75 21.3125 25.3096 21.3125 26V29.5H3.4375V2.5H21.3125V6C21.3125 6.69037 21.8721 7.25 22.5625 7.25C23.2529 7.25 23.8125 6.69037 23.8125 6V1.25C23.8125 0.559625 23.2529 0 22.5625 0H2.1875C1.49713 0 0.9375 0.559625 0.9375 1.25V30.75C0.9375 31.4404 1.49713 32 2.1875 32H22.5625C23.2529 32 23.8125 31.4404 23.8125 30.75V26C23.8125 25.3096 23.2529 24.75 22.5625 24.75Z" fill="white"/>
<path d="M30.6963 15.1161L27.3376 11.7574C26.8494 11.2692 26.058 11.2693 25.5698 11.7574C25.0816 12.2455 25.0816 13.037 25.5698 13.5252L26.7947 14.75L16.4398 14.7499C15.7495 14.7499 15.1898 15.3096 15.1898 15.9999C15.1898 16.6903 15.7494 17.2499 16.4398 17.2499L26.7948 17.25L25.5699 18.4749C25.0817 18.963 25.0817 19.7545 25.5699 20.2427C26.058 20.7309 26.8495 20.7308 27.3376 20.2426L30.6964 16.8839C30.6964 16.8838 30.6966 16.8836 30.6966 16.8836C30.9481 16.6319 31.0534 16.3409 31.0625 16C31.0625 15.663 30.9193 15.339 30.6963 15.1161Z" fill="white"/>
</svg>
