<svg width="30" height="30" viewBox="0 0 30 30" fill="none" xmlns="http://www.w3.org/2000/svg">
<path d="M29.6334 27.866L26.8096 25.0422C23.5653 21.7978 23.7498 16.4631 23.7498 11.8749C23.7498 5.32747 18.4223 0 11.8748 0C5.32741 0 0 5.32741 0 11.8748C0 18.4223 5.32747 23.7498 11.8749 23.7498C16.4631 23.7498 21.7978 23.5653 25.0422 26.8096L27.866 29.6334C28.1097 29.8772 28.4297 29.9997 28.7497 29.9997C29.0698 29.9997 29.3898 29.8772 29.6335 29.6334C30.1222 29.1447 30.1222 28.3547 29.6334 27.866ZM11.8749 21.2498C6.70494 21.2498 2.5 17.0448 2.5 11.8748C2.5 6.70488 6.70494 2.49994 11.8749 2.49994C17.0449 2.49994 21.2498 6.70488 21.2498 11.8748C21.2498 17.0448 17.0448 21.2498 11.8749 21.2498Z" fill="black"/>
</svg>
