<svg width="35" height="32" viewBox="0 0 35 32" fill="none" xmlns="http://www.w3.org/2000/svg">
<path d="M10.901 9.8689L15.4839 5.2864V24.2579C15.4839 25.113 16.1771 25.8062 17.0322 25.8062C17.8874 25.8062 18.5806 25.113 18.5806 24.2579V5.2865L23.163 9.8689C23.4654 10.1713 23.8617 10.3225 24.2578 10.3225C24.6541 10.3225 25.0504 10.1714 25.3528 9.8689C25.9575 9.26421 25.9575 8.28387 25.3528 7.67917L18.1275 0.453781C18.0911 0.417548 18.053 0.383277 18.0135 0.350761C17.9964 0.336723 17.9783 0.324542 17.9609 0.311432C17.9379 0.294194 17.9155 0.276645 17.8917 0.260645C17.8703 0.246297 17.8481 0.23391 17.8262 0.2208C17.8048 0.207897 17.7838 0.194581 17.7617 0.18271C17.7393 0.170736 17.7164 0.160723 17.6935 0.149884C17.6705 0.139045 17.648 0.127587 17.6243 0.117781C17.6023 0.108697 17.5798 0.101264 17.5574 0.0932129C17.5322 0.084129 17.5073 0.0744258 17.4814 0.0665807C17.4591 0.059871 17.4365 0.0550193 17.4141 0.0493419C17.3877 0.0426322 17.3614 0.0352 17.3346 0.0298322C17.3088 0.0247741 17.2827 0.0217806 17.2567 0.0179613C17.2328 0.0144516 17.2092 0.0100129 17.1849 0.00763875C17.1372 0.00299358 17.0894 0.000722551 17.0415 0.000412873C17.0384 0.000412873 17.0354 0 17.0323 0C17.0294 0 17.0263 0.000412873 17.0233 0.000412873C16.9754 0.000619325 16.9275 0.00299358 16.8797 0.00763875C16.856 0.0100129 16.8329 0.0143484 16.8095 0.0177548C16.7829 0.0215742 16.7562 0.024671 16.7299 0.0299355C16.7037 0.0350968 16.6783 0.0423225 16.6526 0.0488258C16.6293 0.0547096 16.6059 0.059871 16.5828 0.0667871C16.5579 0.0743226 16.5337 0.0837161 16.5093 0.0924903C16.4861 0.100852 16.4626 0.10849 16.4397 0.117987C16.417 0.127381 16.3953 0.138426 16.3733 0.148852C16.3495 0.16 16.3256 0.170632 16.3022 0.183019C16.2812 0.194271 16.2614 0.207071 16.2408 0.219252C16.2178 0.232877 16.1947 0.245884 16.1723 0.260852C16.1499 0.275819 16.1289 0.292542 16.1073 0.308542C16.0883 0.322684 16.069 0.335793 16.0507 0.350968C16.013 0.381832 15.977 0.414555 15.9424 0.448723C15.9407 0.450374 15.939 0.451716 15.9372 0.453368L8.71142 7.67907C8.10682 8.28377 8.10672 9.2641 8.71142 9.8688C9.31601 10.4736 10.2965 10.4734 10.901 9.8689Z" fill="white"/>
<path d="M32.5161 15.4839C31.661 15.4839 30.9677 16.1772 30.9677 17.0323V28.9032H3.09677V17.0323C3.09677 16.1772 2.40351 15.4839 1.54839 15.4839C0.693264 15.4839 0 16.1772 0 17.0323V30.4516C0 31.3068 0.693264 32 1.54839 32H32.5161C33.3713 32 34.0645 31.3068 34.0645 30.4516V17.0323C34.0645 16.1772 33.3713 15.4839 32.5161 15.4839Z" fill="white"/>
</svg>
