<svg width="32" height="29" viewBox="0 0 32 29" fill="none" xmlns="http://www.w3.org/2000/svg">
<path d="M15.5948 4.15115L16 4.71138L16.4051 4.15117C16.9797 3.35674 17.6279 2.68091 18.3386 2.13108C19.7421 1.04581 21.3266 0.5 23.0608 0.5C25.3941 0.5 27.5332 1.43239 29.0938 3.12506C30.6378 4.79983 31.5 7.10104 31.5 9.6167C31.5 12.1796 30.5517 14.5478 28.4414 17.094L28.4414 17.094C26.5381 19.3908 23.7925 21.7326 20.5578 24.4891L20.5577 24.4891L20.5303 24.5125C19.4359 25.4453 18.195 26.503 16.9074 27.629L16.9072 27.6292C16.6567 27.8485 16.3344 27.9697 16 27.9697C15.6655 27.9697 15.3434 27.8486 15.0924 27.6288L15.092 27.6285C13.795 26.4944 12.5461 25.43 11.4463 24.4926L11.443 24.4898L11.443 24.4898C8.20779 21.7329 5.46213 19.3908 3.55881 17.0943C1.44848 14.5478 0.5 12.1796 0.5 9.61694C0.5 7.10105 1.3622 4.79983 2.90593 3.12506C4.46656 1.4324 6.60589 0.5 8.93921 0.5C10.6734 0.5 12.2579 1.04583 13.6611 2.13111L13.6612 2.13113C14.3722 2.68094 15.0205 3.35699 15.5948 4.15115Z" fill="white" stroke="black"/>
</svg>
