<svg width="32" height="27" viewBox="0 0 32 27" fill="none" xmlns="http://www.w3.org/2000/svg">
<path d="M22.9266 0.000619336C20.2571 -0.0136465 17.7195 1.15871 16 3.20058C14.2912 1.14475 11.7465 -0.030936 9.07337 0.000619336C4.06227 0.000619336 0 4.06289 0 9.07399C0 17.6614 14.9873 26.0461 15.5949 26.3702C15.8401 26.534 16.1598 26.534 16.4051 26.3702C17.0127 26.0461 32 17.7829 32 9.07399C32 4.06289 27.9377 0.000619336 22.9266 0.000619336ZM16 24.7499C13.6506 23.3728 1.62026 16.0411 1.62026 9.07399C1.62026 4.95776 4.95714 1.6208 9.07344 1.6208C11.5942 1.58769 13.9531 2.85913 15.3114 4.9828C15.5872 5.36309 16.1191 5.44783 16.4994 5.17198C16.5721 5.11926 16.636 5.05545 16.6886 4.9828C18.9413 1.53768 23.5603 0.571019 27.0054 2.8237C29.1144 4.20275 30.3839 6.55405 30.3797 9.07391C30.3797 16.1221 18.3493 23.4132 16 24.7499Z" fill="black"/>
</svg>
